<?xml version="1.0" encoding="UTF-8"?>
<svg width="151px" height="20px" viewBox="0 0 151 20" version="1.1" xmlns="http://www.w3.org/2000/svg" xmlns:xlink="http://www.w3.org/1999/xlink">
    <g id="Page-1" stroke="none" stroke-width="1" fill="none" fill-rule="evenodd">
        <g id="Group" fill-rule="nonzero">
            <path d="M8.5595,19.2655 C3.3125,19.2655 -2.84217094e-14,16.589 -2.84217094e-14,10.7855 L-2.84217094e-14,0.371 L5.194,0.371 L5.194,10.6795 C5.194,13.356 6.5455,14.628 8.6125,14.628 C10.706,14.628 12.0575,13.409 12.0575,10.812 L12.0575,0.371 L17.2515,0.371 L17.2515,10.653 C17.2515,16.6155 13.833,19.2655 8.5595,19.2655 Z M29.256,19.292 C23.956,19.292 19.6895,15.2375 19.6895,9.699 L19.6895,9.646 C19.6895,4.24 23.8235,2.84217094e-14 29.4415,2.84217094e-14 C33.231,2.84217094e-14 35.669,1.59 37.312,3.8425 L33.443,6.837 C32.383,5.5385 31.164,4.664 29.3885,4.664 C26.7915,4.664 24.963,6.89 24.963,9.593 L24.963,9.646 C24.963,12.4285 26.7915,14.6015 29.3885,14.6015 C31.323,14.6015 32.4625,13.7005 33.5755,12.349 L37.4445,15.105 C35.6955,17.5165 33.337,19.292 29.256,19.292 Z M39.6705,18.921 L39.6705,0.371 L54.5105,0.371 L54.5105,4.876 L44.8115,4.876 L44.8115,8.0295 L53.583,8.0295 L53.583,12.296 L44.8115,12.296 L44.8115,18.921 L39.6705,18.921 Z" id="UCF" fill="#FFCC00"></path>
            <path d="M61.50125,18.921 L61.50125,16.71375 L63.84475,16.71375 L63.84475,3.116 L59.839,3.116 L59.839,5.97725 L57.4955,5.97725 L57.4955,0.9905 L72.67375,0.9905 L72.67375,5.97725 L70.33025,5.97725 L70.33025,3.116 L66.3245,3.116 L66.3245,16.71375 L68.668,16.71375 L68.668,18.921 L61.50125,18.921 Z M84.06425,19.248 C78.77775,19.248 75.01725,15.18775 75.01725,9.95575 C75.01725,4.6965 78.83225,0.6635 84.2005,0.6635 C89.487,0.6635 93.2475,4.72375 93.2475,9.95575 C93.2475,15.215 89.4325,19.248 84.06425,19.248 Z M84.146,16.959 C87.961,16.959 90.71325,13.98875 90.71325,9.95575 C90.71325,5.95 87.961,2.9525 84.146,2.9525 C80.30375,2.9525 77.5515,5.92275 77.5515,9.95575 C77.5515,13.9615 80.30375,16.959 84.146,16.959 Z M95.83625,18.921 L95.83625,16.71375 L98.01625,16.71375 L98.01625,3.19775 L95.83625,3.19775 L95.83625,0.9905 L102.567,0.9905 C108.9435,0.9905 112.89475,4.424 112.89475,9.79225 C112.89475,15.215 109.1615,18.921 102.4035,18.921 L95.83625,18.921 Z M100.496,16.71375 L102.7305,16.71375 C107.77175,16.71375 110.3605,13.93425 110.3605,9.765 C110.3605,5.623 107.3085,3.19775 102.5125,3.19775 L100.496,3.19775 L100.496,16.71375 Z M114.74775,18.921 L114.74775,16.71375 L116.38275,16.71375 L121.3695,3.1705 L119.38025,3.1705 L119.38025,0.9905 L128.37275,0.9905 L128.37275,3.1705 L126.35625,3.1705 L131.343,16.71375 L133.00525,16.71375 L133.00525,18.921 L126.62875,18.921 L126.62875,16.741 L128.69975,16.741 L127.3645,12.95325 L120.2795,12.95325 L118.94425,16.741 L121.12425,16.741 L121.12425,18.921 L114.74775,18.921 Z M120.988,10.88225 L126.656,10.88225 L123.822,3.0615 L120.988,10.88225 Z M138.537,18.921 L138.537,16.71375 L140.96225,16.71375 L140.96225,11.8905 L135.7575,3.19775 L133.87725,3.19775 L133.87725,0.9905 L140.2265,0.9905 L140.2265,3.19775 L138.50975,3.19775 L142.243,9.79225 L146.0035,3.19775 L144.17775,3.19775 L144.17775,0.9905 L150.527,0.9905 L150.527,3.19775 L148.64675,3.19775 L143.442,11.86325 L143.442,16.71375 L145.86725,16.71375 L145.86725,18.921 L138.537,18.921 Z" id="TODAY" fill="#000000"></path>
        </g>
    </g>
</svg>
