<?xml version="1.0" encoding="UTF-8"?><svg id="a" xmlns="http://www.w3.org/2000/svg" viewBox="0 0 188.43 38.17"><defs><style>.b{fill:#fff;}</style></defs><path class="b" d="M182.93,9.57l.03-1.76h.46c.83,0,1.18,.26,1.17,.86-.01,.61-.46,.91-1.41,.91h-.25Zm-.9-2.45l-.1,.11c.04,1.66,0,3.06,0,3.47,0,.44-.03,.87-.06,1.69l.09,.1c.21,0,.37-.01,.47-.01,.09,0,.24,0,.42,.01l.09-.11c-.01-.15,0-.27,0-2.09h.11c.12,0,.27,0,.42-.01,.58,.95,.98,1.66,1.3,2.17l.09,.07c.43-.02,.54-.02,.99-.04l.07-.11c-.21-.31-.37-.5-1.49-2.26,.81-.31,1.19-.73,1.21-1.48,.02-1.11-.86-1.5-1.93-1.5h-1.68Zm5.63,2.81c-.04,2.07-1.85,3.74-4.06,3.74s-4.11-1.7-4.07-3.78c.03-2.13,1.86-3.78,4.16-3.78s4,1.64,3.97,3.82m.77-.1c.04-2.47-2.01-4.38-4.73-4.38s-4.89,1.93-4.93,4.44c-.04,2.52,2.06,4.44,4.87,4.44s4.75-1.92,4.79-4.5"/><path class="b" d="M164.05,17.63c.41-1.36,1.84-5.26,6.07-5.26,.96,0,3.72,.26,3.79,3.61,0,.4-.04,.77-.19,1.62-2.36,0-9.68,.04-9.68,.04m10.34,10.42c.3-1.25,.55-2.1,.96-3.31l-.29-.18c-1.43,1.03-3.02,2.21-6.07,2.21-1.33,0-5.52-.11-5.52-4.93,0-.7,.07-1.36,.11-1.58,1.66-.07,2.87-.07,4.53-.07,3.2,0,6.7,.04,8.62,.04l.26-.18c.11-.55,.44-1.84,.44-3.35,0-4.89-3.09-6.88-7.44-6.88-6.37,0-10.31,5.56-10.31,12,0,4.23,2.25,7.99,8.54,7.99,2.83,0,4.75-.73,6-1.47l.18-.26Zm-23.96,1.03c.33-2.36,1.81-8.69,2.14-10.08,1.14-4.79,3.42-5.3,4.42-5.3,.7,0,1.29,.33,1.55,.52l.37-.11c.52-1.36,.88-2.28,1.44-3.61l-.11-.33c-.37-.22-.88-.4-1.69-.4-2.61,0-4.23,2.72-4.79,3.64,.29-1.22,.52-2.17,.81-3.24l-.19-.26c-1.43,.3-2.5,.44-3.97,.63l-.26,.26c-.37,3.13-2.47,12.63-4.01,18.41l.18,.22c1.4-.04,2.39-.07,3.83-.07l.29-.26Zm-19.62-6.4c0-2.65,1.4-10.2,6.48-10.2,1.66,0,3.83,.77,3.83,4.34,0,1.25-.92,10.23-6.48,10.23-2.73,0-3.83-2.02-3.83-4.38m-3.9-.26c0,6.81,5.34,7.36,7.66,7.36,8.69,0,10.45-8.91,10.45-12.77,0-4.9-3.31-7.22-7.88-7.22-6.99,0-10.23,6.66-10.23,12.63m-5.08,6.7c.52-3.39,4.23-20.94,6.07-28.9l-.18-.22c-1.51,.29-2.54,.48-4.05,.7l-.26,.26c-1.29,9.17-5.23,25.29-5.78,28.27l.15,.22c1.4-.07,2.39-.07,3.75-.11l.29-.22Zm-18.07-14.36c1.32-1.33,2.87-1.84,4.27-1.84,1.8,0,4.23,.99,4.23,4.79,0,2.54-1.84,8.94-9.87,8.94-.51,0-1.07-.04-1.33-.11l2.69-11.78Zm-5.08,23.19c.59-2.91,1.11-5.74,1.77-8.58,.7,.04,1.4,.04,2.14,.04,12.92,0,13.69-10.42,13.69-12.04,0-3.76-2.1-7.51-6.74-7.51-2.36,0-4.2,1.14-5.15,1.77l.37-1.51-.18-.26c-1.47,.26-2.46,.44-3.94,.62l-.26,.26c-1.14,7.84-4.31,20.46-6,27.2l.19,.22c.15,0,1.58-.04,1.95-.04,.81,0,1.36,0,1.95,.04l.22-.22Zm-4.27-8.87c-1.07-2.83-2.25-5.96-4.82-13.14,6.37-7.8,6.99-8.5,10.2-12.33l-.18-.3c-.26,0-1.29,.04-2.17,.04-.55,0-1.1,0-1.66-.04l-.33,.22c-2.43,3.28-4.27,5.56-7.03,9.09-1.77-4.84-1.84-5.62-2.98-9.2l-.22-.18c-1.29,.07-2.17,.11-3.46,.11h-.59l-.22,.29c.88,2.32,1.51,3.98,4.53,12.15-8.02,9.9-9.31,11.23-10.93,13.25l.15,.33c.63-.04,1.44-.07,2.17-.07,.63,0,1.51,.04,1.88,.04l.33-.15c1.58-2.28,2.61-3.5,7.62-9.9,1.8,5.48,2.1,6.44,3.16,9.9l.22,.18c1.07-.04,1.8-.04,2.87-.04h1.29l.18-.26Zm-26.27-4.71c-3.35,.19-6.7,.26-10.09,.26-.04-2.14-.08-4.27-.08-6.44,0,0,3.2,0,8.61,.04l.22-.22c.07-1.4,.15-2.76,.26-4.16l-.22-.26c-2.94,.11-5.89,.15-8.87,.15-.04-.77-.04-1.95-.04-3.13,0-1.03,.04-2.02,.04-2.72,3.13,0,6.26,.04,9.42,.11l.22-.22c.04-1.44,.15-2.76,.26-4.27l-.18-.22c-2.43,0-12.15,.07-16.16,.07l-.22,.22c.22,2.58,.26,5.15,.26,7.77v7.62c0,3.42-.04,6.81-.18,10.2l.18,.26c5.41-.04,10.82-.07,16.2-.07l.3-.22c.07-1.4,.15-2.98,.26-4.49l-.18-.26Zm-20.13,0c-3.35,.19-6.7,.26-10.09,.26-.04-2.14-.07-4.27-.07-6.44,0,0,3.2,0,8.61,.04l.22-.22c.07-1.4,.15-2.76,.26-4.16l-.22-.26c-2.95,.11-5.89,.15-8.87,.15-.04-.77-.04-1.95-.04-3.13,0-1.03,.04-2.02,.04-2.72,3.13,0,6.26,.04,9.42,.11l.22-.22c.04-1.44,.15-2.76,.26-4.27l-.18-.22c-2.43,0-12.15,.07-16.16,.07l-.22,.22c.22,2.58,.26,5.15,.26,7.77v7.62c0,3.42-.04,6.81-.18,10.2l.18,.26c5.41-.04,10.82-.07,16.2-.07l.29-.22c.07-1.4,.15-2.98,.26-4.49l-.18-.26Zm-20.14,0c-3.35,.19-6.7,.26-10.09,.26-.04-2.14-.07-4.27-.07-6.44,0,0,3.2,0,8.61,.04l.22-.22c.08-1.4,.15-2.76,.26-4.16l-.22-.26c-2.94,.11-5.89,.15-8.87,.15-.04-.77-.04-1.95-.04-3.13,0-1.03,.04-2.02,.04-2.72,3.13,0,6.26,.04,9.42,.11l.22-.22c.04-1.44,.15-2.76,.26-4.27l-.18-.22c-2.43,0-12.15,.07-16.16,.07l-.22,.22c.22,2.58,.26,5.15,.26,7.77v7.62c0,3.42-.04,6.81-.18,10.2l.18,.26c5.41-.04,10.82-.07,16.2-.07l.3-.22c.07-1.4,.15-2.98,.26-4.49l-.18-.26ZM7.07,29.12c-.18-3.46-.26-6.96-.26-10.45,0-5.08,.07-10.16,.18-15.2l-.15-.22c-.77,.04-2.91,.11-4.12,.11H.18l-.18,.22c.3,4.27,.33,8.58,.33,12.85v2.58c0,3.42-.07,6.81-.18,10.23l.18,.22s2.83-.11,3.53-.11h3.02l.18-.22"/></svg>