<svg width="14" height="14" viewBox="0 0 14 14" fill="none" xmlns="http://www.w3.org/2000/svg">
<path d="M7.00001 0.333328C3.32001 0.333328 0.333344 3.31999 0.333344 7C0.333344 10.68 3.32001 13.6667 7.00001 13.6667C10.68 13.6667 13.6667 10.68 13.6667 7C13.6667 3.31999 10.68 0.333328 7.00001 0.333328ZM1.66668 7C1.66668 6.59333 1.72001 6.19333 1.80668 5.81333L4.99334 9V9.66666C4.99334 10.4 5.59334 11 6.32668 11V12.2867C3.70668 11.9533 1.66668 9.71333 1.66668 7ZM10.9267 10.6C10.7533 10.06 10.26 9.66666 9.66001 9.66666H8.99334V7.66666C8.99334 7.29999 8.69334 7 8.32668 7H4.32668V5.66666H5.66001C6.02668 5.66666 6.32668 5.36666 6.32668 5V3.66666H7.66001C8.39334 3.66666 8.99334 3.06666 8.99334 2.33333V2.06C10.9467 2.84666 12.3333 4.76666 12.3333 7C12.3333 8.38666 11.7933 9.65333 10.9267 10.6Z" fill="#232A31"/>
</svg>
